<svg preserveAspectRatio="none" overflow="visible" style="display: block;" width="14.8613" height="14.8609" viewBox="0 0 14.8613 14.8609" fill="none" xmlns="http://www.w3.org/2000/svg">
<path id="Vector" fill-rule="evenodd" clip-rule="evenodd" d="M6.73701 0.0318448C6.96629 0.0106149 7.1977 0 7.43123 0C8.7313 5.84526e-05 10.0086 0.341223 11.1356 0.989418C12.2625 1.63761 13.1997 2.57015 13.8535 3.69389C14.5073 4.81762 14.8547 6.09323 14.8613 7.39329C14.8678 8.69335 14.533 9.97237 13.8905 11.1026C13.248 12.2328 12.3203 13.1747 11.1998 13.8341C10.0794 14.4935 8.80557 14.8475 7.50556 14.8605C6.20555 14.8736 4.92486 14.5453 3.79141 13.9086C2.65796 13.2718 1.71142 12.3487 1.04634 11.2317C0.998407 11.1568 0.966006 11.0731 0.951063 10.9854C0.93612 10.8978 0.93894 10.8081 0.959356 10.7216C0.979771 10.635 1.01737 10.5535 1.06991 10.4818C1.12245 10.4101 1.18886 10.3497 1.26521 10.3041C1.34155 10.2586 1.42627 10.2289 1.51433 10.2167C1.60239 10.2046 1.69199 10.2102 1.77782 10.2334C1.86365 10.2565 1.94395 10.2967 2.01395 10.3515C2.08395 10.4063 2.14223 10.4746 2.18532 10.5523C2.744 11.4908 3.54426 12.2622 4.50264 12.786C5.46102 13.3098 6.5424 13.5669 7.63398 13.5304C8.72556 13.4939 9.78735 13.1652 10.7086 12.5785C11.6298 11.9918 12.3768 11.1687 12.8715 10.1949C13.3662 9.22123 13.5906 8.1326 13.5212 7.04261C13.4519 5.95262 13.0913 4.90121 12.4772 3.99806C11.863 3.0949 11.0177 2.37309 10.0296 1.90792C9.04138 1.44274 7.94648 1.25125 6.85908 1.3534C6.68726 1.36352 6.51823 1.30647 6.38769 1.19428C6.25714 1.0821 6.17531 0.923578 6.15947 0.752188C6.14362 0.580797 6.19501 0.409958 6.30277 0.275747C6.41054 0.141536 6.56624 0.0544592 6.73701 0.0329063M6.478 4.5899C5.77742 4.23111 4.79235 4.66102 4.79235 5.55904V9.30399C4.79235 10.202 5.77848 10.6309 6.478 10.2721L10.1306 8.3996C10.9373 7.98562 10.9373 6.87636 10.1306 6.46343L6.478 4.5899ZM4.35502 2.15908C4.50206 2.06782 4.60762 1.92271 4.64918 1.75472C4.69074 1.58673 4.66502 1.40914 4.57749 1.25985C4.48996 1.11056 4.34757 1.00137 4.18067 0.95559C4.01378 0.909808 3.8356 0.931051 3.68415 1.01479C2.93594 1.45167 2.2699 2.01604 1.71614 2.68239C1.6579 2.74898 1.61355 2.82653 1.58572 2.9105C1.55789 2.99448 1.54713 3.08317 1.55409 3.17135C1.56104 3.25954 1.58555 3.34545 1.6262 3.42403C1.66684 3.5026 1.72279 3.57225 1.79075 3.62889C1.85871 3.68552 1.93731 3.72799 2.02192 3.7538C2.10654 3.77961 2.19546 3.78823 2.28346 3.77916C2.37145 3.7701 2.45675 3.74353 2.53433 3.70101C2.6119 3.65849 2.68019 3.60089 2.73518 3.53159C3.19134 2.98421 3.73907 2.52017 4.35396 2.16014M1.52826 5.87855C1.57274 5.70823 1.54774 5.52721 1.45876 5.37532C1.36977 5.22343 1.22409 5.11311 1.05377 5.06863C0.883448 5.02415 0.702431 5.04915 0.550542 5.13814C0.398653 5.22712 0.288333 5.3728 0.243852 5.54312C0.0236031 6.38151 -0.0482466 7.25197 0.0315531 8.11512C0.0394988 8.20189 0.0644582 8.28625 0.105006 8.36338C0.145554 8.44051 0.200897 8.5089 0.267875 8.56464C0.334852 8.62038 0.412153 8.66238 0.495363 8.68825C0.578573 8.71412 0.666063 8.72334 0.752838 8.71539C0.839613 8.70745 0.923973 8.68249 1.0011 8.64194C1.07823 8.60139 1.14662 8.54605 1.20236 8.47907C1.2581 8.41209 1.3001 8.33479 1.32597 8.25158C1.35183 8.16837 1.36106 8.08088 1.35311 7.99411C1.28856 7.2841 1.34783 6.56828 1.52826 5.87855Z" fill="white"/>
</svg>
